# xmcd CD database generated by RipIT
#
# Track frame offsets:
# 150
# 30830
# 55612
# 80657
# 98362
# 117752
# 141592
# 159482
# 177995
# 199252
#
# Disc length: 2944 seconds
#
# Revision: 4
# Processed by: cddbd v1.5.2PL0 Copyright (c) Steve Scherf et al.
# Submitted via: RipIT 3.6.0-beta20070523 www.suwald.com/ripit/ripit.html on 2007-05-24 at 18:18
#
DISCID=790b7e0a
DTITLE=Pet Shop Boys - Behaviour
DYEAR=1990
DGENRE=Pop
TTITLE0=Being Boring
TTITLE1=This Must Be The Place I Waited Years To Leave
TTITLE2=To Face The Truth
TTITLE3=How Can You Expect To Be Taken Seriously?
TTITLE4=Only The Wind
TTITLE5=My October Symphony
TTITLE6=So Hard
TTITLE7=Nervously
TTITLE8=The End Of The World
TTITLE9=Jealousy
EXTD=YEAR: 1990\n
EXTT0=
EXTT1=
EXTT2=
EXTT3=
EXTT4=
EXTT5=
EXTT6=
EXTT7=
EXTT8=
EXTT9=
PLAYORDER=
